<svg width="180" height="152" viewBox="0 0 180 152" fill="none" xmlns="http://www.w3.org/2000/svg">
<path d="M26.5312 0.390625V3.15625C25.625 3.53125 24.7656 3.82812 23.9531 4.04688C23.1406 4.26563 22.4375 4.54688 21.8438 4.89062C20.5 5.64062 19.8281 7.01562 19.8281 9.01562V58.375C19.8281 60.375 20.5 61.75 21.8438 62.5C22.4688 62.8438 23.1875 63.125 24 63.3438C24.8125 63.5625 25.6875 63.8594 26.625 64.2344V67H1.35938V64.2344C2.26562 63.8594 3.125 63.5625 3.9375 63.3438C4.75 63.125 5.46875 62.8438 6.09375 62.5C7.46875 61.75 8.15625 60.375 8.15625 58.375V9.01562C8.15625 7.01562 7.46875 5.64062 6.09375 4.89062C5.46875 4.54688 4.75 4.26563 3.9375 4.04688C3.125 3.82812 2.26562 3.53125 1.35938 3.15625V0.390625H26.5312ZM53.2031 64.5156C55.5469 64.1719 57.4219 63.3125 58.8281 61.9375C60.2656 60.5312 60.9844 58.9062 60.9844 57.0625C60.9844 55.2188 60.6094 53.7969 59.8594 52.7969C59.1406 51.7656 58.1719 50.8906 56.9531 50.1719C55.7656 49.4219 54.4062 48.7656 52.875 48.2031C51.3438 47.6094 49.7812 47.0312 48.1875 46.4688C46.5938 45.875 45.0312 45.2188 43.5 44.5C41.9688 43.7812 40.5938 42.9219 39.375 41.9219C36.7188 39.7031 35.3906 36.7969 35.3906 33.2031C35.3906 29.9844 36.6094 27.125 39.0469 24.625C41.7969 21.75 45.3906 20.1406 49.8281 19.7969V23.5C48.0156 23.8438 46.5625 24.5938 45.4688 25.75C44.4062 26.9062 43.875 28.2656 43.875 29.8281C43.875 31.3906 44.25 32.6406 45 33.5781C45.75 34.4844 46.7344 35.2812 47.9531 35.9688C49.2031 36.625 50.6094 37.2344 52.1719 37.7969C53.7656 38.3281 55.3906 38.9062 57.0469 39.5312C58.7031 40.125 60.3125 40.7969 61.875 41.5469C63.4688 42.2656 64.875 43.1719 66.0938 44.2656C68.8438 46.7031 70.2188 49.8594 70.2188 53.7344C70.2188 57.1406 68.9375 60.1875 66.375 62.875C63.3125 66.0938 58.9219 67.875 53.2031 68.2188V64.5156ZM56.3906 30.8125C56.3906 28.4688 57.25 26.9688 58.9688 26.3125C58 24.5938 56.25 23.6094 53.7188 23.3594V19.7969C57.8438 20.1094 61.2812 21.25 64.0312 23.2188C66.75 25.1875 68.1094 27.5625 68.1094 30.3438C68.1094 32.0312 67.5781 33.3594 66.5156 34.3281C65.4844 35.2969 64.0625 35.7812 62.25 35.7812C60.4688 35.7812 59.0469 35.3281 57.9844 34.4219C56.9219 33.5156 56.3906 32.3125 56.3906 30.8125ZM46.6406 57.2031C46.6406 59.5469 45.7812 61.0469 44.0625 61.7031C45.0312 63.4219 46.7812 64.4062 49.3125 64.6562V68.2188C45.2812 67.9688 41.8438 66.8281 39 64.7969C36.2812 62.8281 34.9219 60.4531 34.9219 57.6719C34.9219 55.9844 35.4375 54.6562 36.4688 53.6875C37.5312 52.7188 38.9531 52.2344 40.7344 52.2344C42.5469 52.2344 43.9844 52.6875 45.0469 53.5938C46.1094 54.5 46.6406 55.7031 46.6406 57.2031ZM16.0312 114.844V140.766C16.0312 143.578 16.7188 145.25 18.0938 145.781C18.5312 145.969 19 146.125 19.5 146.25C21.1562 146.719 22.3281 147.141 23.0156 147.516V150H0.421875V147.516C1.01562 147.141 1.64062 146.844 2.29688 146.625C2.95312 146.375 3.5625 146.094 4.125 145.781C5.40625 145.125 6.04688 144.062 6.04688 142.594V115.453C6.04688 111.859 5.75 109.781 5.15625 109.219C4.59375 108.656 4.03125 108.25 3.46875 108C2.9375 107.75 2.375 107.547 1.78125 107.391C1.1875 107.203 0.671875 106.938 0.234375 106.594V103.734H15.4688L16.0312 114.844ZM30.375 116.344C29 116.344 27.9219 116.016 27.1406 115.359C26.3594 114.703 25.9688 113.891 25.9688 112.922C25.9688 111.953 26.375 111 27.1875 110.062C26.9062 109.875 26.5469 109.781 26.1094 109.781C23.9844 109.812 21.9219 111.312 19.9219 114.281V107.062C22.2344 104.188 24.8594 102.75 27.7969 102.75C31.1719 102.75 33.4375 104.219 34.5938 107.156C34.9688 108.062 35.1562 109.281 35.1562 110.812C35.1562 112.344 34.7031 113.656 33.7969 114.75C32.8906 115.812 31.75 116.344 30.375 116.344ZM61.875 126.094C53.5 129.125 49.3125 133.547 49.3125 139.359C49.3125 141.703 49.875 143.594 51 145.031C52.125 146.438 53.7969 147.141 56.0156 147.141C58.2656 147.141 60.2188 146.312 61.875 144.656V149.109C59.4688 150.547 56.75 151.266 53.7188 151.266C50.6875 151.266 48.25 150.969 46.4062 150.375C44.5938 149.781 43.0625 148.969 41.8125 147.938C39.2188 145.844 37.9219 143.078 37.9219 139.641C37.9219 132.547 44.2188 127.188 56.8125 123.562C58.5938 123.031 60.2812 122.562 61.875 122.156V126.094ZM50.7656 109.312C52.4844 109.969 53.3438 111.469 53.3438 113.812C53.3438 115.312 52.8125 116.516 51.75 117.422C50.6875 118.328 49.25 118.781 47.4375 118.781C45.6562 118.781 44.2344 118.297 43.1719 117.328C42.1406 116.359 41.625 115.109 41.625 113.578C41.625 112.047 41.9844 110.672 42.7031 109.453C43.4219 108.234 44.4375 107.156 45.75 106.219C48.4688 104.25 51.8906 103.109 56.0156 102.797V106.359C53.4844 106.609 51.7344 107.594 50.7656 109.312ZM78.6562 145.359C80.375 145.359 81.4688 143.797 81.9375 140.672L84.3281 141.938C84.0156 144.969 83.1719 147.281 81.7969 148.875C80.4531 150.469 78.2969 151.266 75.3281 151.266C73.0156 151.266 71.2969 150.844 70.1719 150C68.3594 148.625 66.8906 146.547 65.7656 143.766V114.562C65.7656 112.625 65.25 110.953 64.2188 109.547C63.2188 108.109 61.7812 107.141 59.9062 106.641V102.797C70.5 103.359 75.7969 108.953 75.7969 119.578V141.75C75.7969 144.156 76.75 145.359 78.6562 145.359ZM118.219 122.062C118.219 113.062 115.969 108 111.469 106.875V102.844C117.312 103.375 121.812 105.828 124.969 110.203C127.938 114.297 129.422 119.625 129.422 126.188H102.891V122.062H118.219ZM111.656 147.141C117.094 146.891 120.953 144.328 123.234 139.453C123.891 138.047 124.453 136.609 124.922 135.141L128.953 136.641C127.203 143.172 123.625 147.562 118.219 149.812C116.312 150.594 114.125 151.062 111.656 151.219V147.141ZM98.9531 124.078C98.9531 137.516 101.891 145.078 107.766 146.766V151.078C101.641 150.391 96.7812 147.844 93.1875 143.438C89.5938 139.094 87.7969 133.641 87.7969 127.078C87.7969 120.172 89.5938 114.5 93.1875 110.062C96.8125 105.594 101.609 103.172 107.578 102.797V106.688C101.828 107.375 98.9531 113.172 98.9531 124.078ZM152.297 83.1094V142.594C152.297 144.062 152.938 145.125 154.219 145.781C154.781 146.094 155.406 146.375 156.094 146.625C156.812 146.844 157.516 147.141 158.203 147.516V150H136.359V147.516C137.016 147.141 137.688 146.844 138.375 146.625C139.094 146.375 139.734 146.094 140.297 145.781C141.609 145.094 142.266 144.031 142.266 142.594V90.9375C142.266 89.4688 141.594 88.375 140.25 87.6562C139.656 87.3438 139 87.0781 138.281 86.8594C137.562 86.6406 136.875 86.3438 136.219 85.9688V83.1094H152.297ZM170.25 138.844C171.031 138.531 171.859 138.375 172.734 138.375C173.641 138.375 174.484 138.547 175.266 138.891C176.047 139.203 176.719 139.641 177.281 140.203C178.5 141.422 179.109 142.922 179.109 144.703C179.109 147.516 177.828 149.438 175.266 150.469C174.484 150.781 173.641 150.938 172.734 150.938C171.859 150.938 171.031 150.781 170.25 150.469C169.469 150.156 168.781 149.719 168.188 149.156C166.969 148 166.359 146.516 166.359 144.703C166.359 141.891 167.656 139.938 170.25 138.844Z" fill="black"/>
</svg>
